<?xml version="1.0" encoding="utf-8"?>
<!-- Generator: Adobe Illustrator 26.5.0, SVG Export Plug-In . SVG Version: 6.00 Build 0)  -->
<svg version="1.1" id="Camada_1" xmlns="http://www.w3.org/2000/svg" xmlns:xlink="http://www.w3.org/1999/xlink" x="0px" y="0px"
	 viewBox="0 0 64 64" style="enable-background:new 0 0 64 64;" xml:space="preserve">
<g>
	<g>
		<path d="M55.06,30.7c-0.25-2.42-0.85-4.75-1.94-6.93c-2.1-4.18-5.45-6.95-9.79-8.57c-1.38-0.52-2.79-0.85-4.29-0.76
			c-0.9,0.05-1.81,0.01-2.72,0.01c-4.94,0-9.88,0-14.82,0c-2.29,0-3.09,1.61-3.07,3.05c0.04,2.75,0.01,5.51,0.01,8.26
			c0,1.03,0.53,1.56,1.55,1.56c5.6,0,11.21-0.02t,16.81,0.01c1.69,0.01,3.12,0.71,4.09,2.15c1.19,1.77,1.22,3.68,0.46,5.62
			c-0.72,1.8-2.36,2.86-4.3,2.86c-5.46,0-10.91,0-16.37,0c-1.39,0-2.29,0.9-2.29,2.29c0,5.36,0,10.72,0,16.08
			c0,0.19-0.01,0.38-0.05,0.56c-0.31,1.6-1.03,2.94-2.57,3.63c-1.81,0.81-3.64,0.68-5.34-0.33c-1.38-0.82-2.12-2.1-2.12-3.75
			c0-13.29,0-26.58,0-39.87c0-0.37,0.01-0.74,0.06-1.1c0.33-2.43,1.14-4.68,2.62-6.65c1.84-2.46,4.29-4.07,7.16-5.09
			c1.29-0.46,2.6-0.7,3.99-0.7c8.69,0.03,17.37,0.01,26.06,0.02c0.35,0,0.64-0.09,0.92-0.28c0.59-0.4,0.82-1.03,0.62-1.71
			C49.52,0.36,49.03,0,48.29,0c-9.01,0-18.03,0-27.04,0c-0.1,0.06-0.22,0-0.32,0.05c-1.67,0.23-3.31,0.57-4.89,1.16
			c-2.03,0.76-3.83,1.89-5.42,3.37C10,5.15,9.46,5.78,8.95,6.44c-1.22,1.59-2.12,3.35-2.78,5.24c-0.4,1.15-0.71,2.33-0.86,3.54
			c0.08,0.16,0.13,0.33,0.13,0.51c0,0.05,0,0.11-0.01,0.16c0,0.03,0,0.06,0,0.1c0.01,0.15-0.03,0.28-0.09,0.41
			c0,0.01-0.01,0.01-0.01,0.02c-0.01,0.13-0.04,0.26-0.1,0.39c0,13.24,0,26.48,0,39.72c0,0.07-0.01,0.15,0,0.23
			c0,0.01,0.01,0.01,0.01,0.02c0,0.01,0,0.01,0.01,0.02c0,0.01,0.01,0.02,0.01,0.04c0,0,0,0.01,0,0.01
			c0.04,0.11,0.06,0.23,0.06,0.35c-0.01,0.08-0.02,0.17-0.03,0.25c0.13,0.72,0.42,1.8,1.06,2.86c0.19,0.31,0.41,0.63,0.67,0.93
			c0.69,0.82,1.56,1.45,2.54,1.93c0.88,0.43,1.81,0.73,2.8,0.83C12.43,64,12.5,64,12.56,64c3.6,0,7.2,0,10.8,0
			c0.07,0,0.15,0.01,0.22-0.02c0.33-0.07,0.67-0.13,1-0.21c1.63-0.38,3.07-1.14,4.26-2.32c0.9-0.89,1.56-1.94,2.06-3.09
			c0.45-1.05,0.7-2.13,0.66-3.3c-0.05-1.42-0.01-2.85-0.01-4.27c0-0.19,0.01-0.38,0.02-0.57c0.11-0.06,0.23-0.03,0.34-0.03
			c2.66,0,3.87,0.27,6.39,0c0.1-0.01,0.21-0.02,0.34-0.04c0.29-0.04,0.69-0.09,1.16-0.18c1.05-0.19,3.3-0.66,5.85-1.98
			c2.01-1.04,3.77-2.41,5.23-4.15c1.27-1.51,2.24-3.19,2.96-5.02c0.64-1.63,1.04-3.33,1.28-5.06c0.01-0.06,0.01-0.13,0.02-0.19
			c0.01-0.08,0.01-0.15,0.01-0.23c0-0.02,0-0.03,0-0.04c0.02-0.25,0.03-0.58,0.03-0.93C55.19,31.6,55.09,31.03,55.06,30.7z"/>
		<path d="M5.49,17.35c0,13.19,0,26.37,0,39.56c0,0.11-0.04,0.23,0.05,0.33c0-0.13,0-0.25,0-0.38c0-13.21,0-26.42,0-39.62
			C5.53,17.27,5.51,17.31,5.49,17.35z"/>
		<path d="M27.86,0c-0.1,0.05-0.21,0.05-0.32,0.05C27.56,0.04,27.77,0.01,27.86,0z"/>
		<path d="M11.83,56.68"/>
	</g>
	<path d="M5.39,38.6c0.17-0.63,0.64-2.4,0.48-2.1c-0.14,0.27-0.4,1.47-0.51,2.04C5.37,38.56,5.38,38.58,5.39,38.6z"/>
	<path d="M6.33,48.34c-0.08-2.31-0.7-7.8-0.9-9.45c0,0.01,0,0.02-0.01,0.03c0,0.02,0,0.03,0,0.05c0,0.08-0.01,0.16-0.05,0.23
		c0,0,0,0.01,0,0.01c-0.01,0.09-0.03,0.17-0.07,0.26l0,3.25l0,10.83C5.3,53.55,6.42,51.08,6.33,48.34z"/>
	<path d="M5.45,38.04l-0.09,0.5c0,0-0.09,0.85-0.06,0.93s0.24-0.63,0.24-0.63"/>
	<path d="M5.24,56.75c0,0,0.02,0.61,0.06,0.69c0.04,0.08,0.08-0.6,0.08-0.6"/>
	<path d="M5.32,15.22c0,0-0.17,0.95-0.07,1.59s0.42-1.46,0.42-1.46"/>
</g>
</svg>
